<?xml version="1.0" standalone="no"?><!DOCTYPE svg PUBLIC "-//W3C//DTD SVG 1.1//EN" "http://www.w3.org/Graphics/SVG/1.1/DTD/svg11.dtd"><svg class="icon" width="200px" height="200.00px" viewBox="0 0 1024 1024" version="1.1" xmlns="http://www.w3.org/2000/svg"><path d="M413.2 0h195.932v205.025H413.199V0z" fill="#EEEFEF" /><path d="M414.874 205.025H262.39l-43.438-67.732V0h195.922v205.025z" fill="#BD1D21" /><path d="M609.132 205.025H761.61l43.438-67.732V0H609.126v205.025z" fill="#054C87" /><path d="M102.508 614.508C102.508 840.658 285.844 1024 512 1024s409.492-183.342 409.492-409.492S738.156 205.015 512 205.015 102.508 388.357 102.508 614.508z" fill="#F9C021" /><path d="M512 259.507c-196.06 0-355 158.935-355 355 0 196.06 158.935 355 355 355 196.06 0 355.005-158.94 355.005-355s-158.945-355-355.005-355z m0 696.848c-188.8 0-341.847-153.047-341.847-341.847S323.2 272.66 512 272.66c188.795 0 341.852 153.048 341.852 341.848S700.79 956.355 512 956.355z" fill="#AA891F" /><path d="M515.2 448.64h40.003v337.603H502.4v-243.2c-20.275 14.95-48.548 29.87-84.803 44.8v-51.2c53.33-22.406 85.858-51.733 97.603-88.003z" fill="#AA891F" /></svg>