<?xml version="1.0" standalone="no"?><!DOCTYPE svg PUBLIC "-//W3C//DTD SVG 1.1//EN" "http://www.w3.org/Graphics/SVG/1.1/DTD/svg11.dtd"><svg class="icon" width="200px" height="200.00px" viewBox="0 0 1024 1024" version="1.1" xmlns="http://www.w3.org/2000/svg"><path d="M810.666667 85.333333a42.666667 42.666667 0 0 1 42.666666 42.666667v362.666667h-85.333333V170.666667H170.666667v640h170.666666v85.333333H128a42.666667 42.666667 0 0 1-42.666667-42.666667V128a42.666667 42.666667 0 0 1 42.666667-42.666667h682.666667zM256 341.333333V256h426.666667v85.333333H256z m0 170.666667v-85.333333h298.666667v85.333333H256z" fill="#1768E4" /><path d="M768 896h-0.426667A211.968 211.968 0 0 0 810.666667 768h-85.333334c0 70.570667-57.386667 128-128 128s-128-57.429333-128-128 57.386667-128 128-128h0.426667A211.968 211.968 0 0 0 554.666667 768h85.333333c0-70.570667 57.429333-128 128-128s128 57.429333 128 128-57.429333 128-128 128m0-341.333333c-30.421333 0-59.306667 6.485333-85.546667 18.048A210.858667 210.858667 0 0 0 597.333333 554.666667c-117.632 0-213.333333 95.701333-213.333333 213.333333s95.701333 213.333333 213.333333 213.333333c30.378667 0 59.178667-6.485333 85.418667-17.962666A213.674667 213.674667 0 0 0 768 981.333333c117.632 0 213.333333-95.701333 213.333333-213.333333s-95.701333-213.333333-213.333333-213.333333" fill="#8BB3F1" /></svg>