<?xml version="1.0" standalone="no"?><!DOCTYPE svg PUBLIC "-//W3C//DTD SVG 1.1//EN" "http://www.w3.org/Graphics/SVG/1.1/DTD/svg11.dtd"><svg class="icon" width="200px" height="200.00px" viewBox="0 0 1024 1024" version="1.1" xmlns="http://www.w3.org/2000/svg"><path d="M620.9 911.1H403.8c-93.1 0-168.5-75.5-168.5-168.5v-412h554.2v412c-0.1 93.1-75.5 168.5-168.6 168.5zM331.4 356.5v386.1c0 40 32.4 72.4 72.4 72.4h217.1c40 0 72.4-32.4 72.4-72.4V356.5H331.4z" fill="#BDD2EF" /><path d="M397.3 726.9v-254c0-24.9 20.1-45 45-45s45 20.1 45 45v254c0 24.9-20.1 45-45 45s-45-20.1-45-45zM542.9 726.9v-254c0-24.9 20.1-45 45-45s45 20.1 45 45v254c0 24.9-20.1 45-45 45s-45-20.1-45-45z" fill="#BDD2EF" /><path d="M826.8 368.5H201.2c-19.7 0-35.7-16-35.7-35.7v-77.9c0-19.7 16-35.7 35.7-35.7h625.6c19.7 0 35.7 16 35.7 35.7v77.9c0 19.7-16 35.7-35.7 35.7z" fill="#2867CE" /><path d="M632.7 187.5c-2.1-40.2-35.3-72.3-76-72.3h-85.2c-40.8 0-74 32-76 72.3h237.2z" fill="#2867CE" /></svg>