<?xml version="1.0" standalone="no"?><!DOCTYPE svg PUBLIC "-//W3C//DTD SVG 1.1//EN" "http://www.w3.org/Graphics/SVG/1.1/DTD/svg11.dtd"><svg class="icon" width="200px" height="200.00px" viewBox="0 0 1024 1024" version="1.1" xmlns="http://www.w3.org/2000/svg"><path fill="#386bf3" d="M344.59 920.96c38 12.66 60.69-17.84 34.84-34.83-51.39-33.76-76-98.14-57.01-155.12 19-63.31 69.67-88.64 69.67-183.61 0 0 63.33 47.48 50.67 120.3 63.34-72.81 34.84-167.79 22.17-212.11 161.51 85.48 300.84 272.25 139.34 430.54-19 15.83 0 44.32 28.5 34.83 440.19-250.1 107.67-623.66 50.67-667.98 19 44.32 22.17 113.96-15.83 148.79C601.1 151.67 439.6 101.02 439.6 101.02c19 129.8-72.83 269.09-158.34 376.73-3.17-53.82-6.33-88.64-31.66-136.13-6.33 91.81-79.17 167.79-98.17 262.76-25.35 126.63 18.99 218.44 193.16 316.58z m0 0"  /></svg>