<?xml version="1.0" standalone="no"?><!DOCTYPE svg PUBLIC "-//W3C//DTD SVG 1.1//EN" "http://www.w3.org/Graphics/SVG/1.1/DTD/svg11.dtd"><svg class="icon" width="200px" height="200.00px" viewBox="0 0 1024 1024" version="1.1" xmlns="http://www.w3.org/2000/svg"><path d="M413.19936 0h195.93216v205.02528H413.19936V0z" fill="#EEEFEF" /><path d="M414.8736 205.02528H262.38976l-43.43808-67.73248V0H414.8736v205.02528z" fill="#BD1D21" /><path d="M609.13152 205.02528h152.47872l43.43808-67.73248V0H609.1264v205.02528z" fill="#054C87" /><path d="M102.50752 614.50752C102.50752 840.65792 285.84448 1024 512 1024s409.49248-183.34208 409.49248-409.49248S738.15552 205.01504 512 205.01504s-409.49248 183.34208-409.49248 409.49248z" fill="#D3D3D3" /><path d="M512 259.5072c-196.06016 0-355.00032 158.93504-355.00032 355.00032 0 196.06016 158.93504 355.00032 355.00032 355.00032 196.06016 0 355.00544-158.94016 355.00544-355.00032S708.06016 259.5072 512 259.5072z m0 696.84736c-188.8 0-341.84704-153.04704-341.84704-341.84704S323.2 272.66048 512 272.66048c188.79488 0 341.85216 153.04704 341.85216 341.84704S700.78976 956.35456 512 956.35456z" fill="#979697" /><path d="M627.2 739.84v44.8H401.60256V752.64c24.5248-44.8 60.25216-84.2496 107.20256-118.4 46.92992-33.0496 69.32992-62.40256 67.2-88.00256 0-32-19.2-48-57.6-48-29.87008 1.0752-49.59744 19.2-59.19744 54.4l-51.2-22.4C428.25216 475.83744 467.2 448.64 524.8 448.64c66.12992 3.2 101.32992 34.67264 105.6 94.40256 5.32992 42.67008-21.86752 83.2-81.60256 121.6-37.34528 27.7504-64 52.80256-80 75.20256l158.40256-0.00512z" fill="#979697" /></svg>