<?xml version="1.0" standalone="no"?><!DOCTYPE svg PUBLIC "-//W3C//DTD SVG 1.1//EN" "http://www.w3.org/Graphics/SVG/1.1/DTD/svg11.dtd"><svg class="icon" width="200px" height="200.00px" viewBox="0 0 1024 1024" version="1.1" xmlns="http://www.w3.org/2000/svg"><path d="M413.2 0h195.932v205.025H413.199V0z" fill="#EEEFEF" /><path d="M414.874 205.025H262.39l-43.438-67.732V0h195.922v205.025z" fill="#BD1D21" /><path d="M609.132 205.025H761.61l43.438-67.732V0H609.126v205.025z" fill="#054C87" /><path d="M102.508 614.508C102.508 840.658 285.844 1024 512 1024s409.492-183.342 409.492-409.492S738.156 205.015 512 205.015 102.508 388.357 102.508 614.508z" fill="#EF9F45" /><path d="M512 259.507c-196.06 0-355 158.935-355 355 0 196.06 158.935 355 355 355 196.06 0 355.005-158.94 355.005-355s-158.945-355-355.005-355z m0 696.848c-188.8 0-341.847-153.047-341.847-341.847S323.2 272.66 512 272.66c188.795 0 341.852 153.048 341.852 341.848S700.79 956.355 512 956.355z" fill="#C3733B" /><path d="M403.2 701.44l54.4-12.8c4.25 37.35 24.003 56.55 59.197 57.6 43.73 1.07 65.05-18.652 64-59.203-3.2-32-24.55-48.532-64-49.602H476.8v-46.403h27.203c40.53 0 61.85-17.05 64-51.2-1.07-27.73-17.07-42.127-48-43.202-30.946 2.15-49.598 19.753-55.998 52.802l-54.405-12.79c14.925-57.6 51.2-86.927 108.8-88.002 68.25 1.075 103.45 32 105.6 92.8 0 32-17.603 54.948-52.803 68.803 42.65 17.07 64.533 43.75 65.603 80-4.27 64-43.203 97.602-116.803 100.802C453.852 789.96 414.93 760.11 403.2 701.44z" fill="#C3733B" /></svg>