<?xml version="1.0" standalone="no"?><!DOCTYPE svg PUBLIC "-//W3C//DTD SVG 1.1//EN" "http://www.w3.org/Graphics/SVG/1.1/DTD/svg11.dtd"><svg t="1562835540666" class="icon" viewBox="0 0 1170 1024" version="1.1" xmlns="http://www.w3.org/2000/svg" p-id="1723" xmlns:xlink="http://www.w3.org/1999/xlink" width="228.515625" height="200"><defs><style type="text/css"></style></defs><path d="M999.51104 150.79424c-116.51072-114.69312-302.19264-118.77888-423.6288-9.31328C454.44608 32.01024 268.75392 36.096 152.24832 150.79424c-118.93248 117.36576-120.20224 308.92032-2.83648 427.85792 0.94208 0.95232 1.88928 1.89952 2.8416 2.8416l354.89792 351.68256c37.29408 37.95456 98.304 38.49728 136.25856 1.2032l1.2032-1.2032 354.89792-351.36512c119.01952-117.27872 120.43776-308.83328 3.15904-427.8528-1.04448-1.06496-2.0992-2.11968-3.15904-3.16416z m-45.93152 385.408l-354.89792 351.68768a32.11776 32.11776 0 0 1-45.41952 0.18432l-0.18944-0.18432-355.21536-351.68768c-93.92128-92.70784-94.90944-243.99872-2.2016-337.92 0.72704-0.73728 1.46432-1.46944 2.2016-2.2016 92.4416-90.01472 239.01184-92.41088 334.34112-5.45792l43.67872 37.57568 43.36128-37.57568c95.74912-86.50752 242.3296-83.41504 334.34112 7.0656 93.48096 93.1584 93.74208 244.4544 0.5888 337.93024-0.19968 0.18944-0.38912 0.38912-0.5888 0.58368z" fill="#333333" p-id="1724"></path><path d="M749.97248 267.30496a16.05632 16.05632 0 0 0 16.05632 16.05632c57.6512 0 104.38656 46.73536 104.38656 104.38144a16.05632 16.05632 0 0 0 32.11776 0c0-75.38688-61.11744-136.4992-136.4992-136.4992a16.06144 16.06144 0 0 0-16.06144 16.06144z" fill="#333333" p-id="1725"></path></svg>